<mxfile host="app.diagrams.net" modified="2023-05-30T15:41:37.428Z" agent="Mozilla/5.0 (Windows NT 10.0; Win64; x64) AppleWebKit/537.36 (KHTML, like Gecko) Chrome/113.0.0.0 Safari/537.36" etag="jJHTAclK8wA4uuIC607G" version="21.3.5" type="github">
  <diagram name="Page-1" id="c2cIjUjP4itvl2Wlt6ad">
    <mxGraphModel dx="1725" dy="808" grid="1" gridSize="10" guides="1" tooltips="1" connect="1" arrows="1" fold="1" page="1" pageScale="1" pageWidth="827" pageHeight="1169" math="0" shadow="0">
      <root>
        <mxCell id="0" />
        <mxCell id="1" parent="0" />
        <mxCell id="oGM4uTyw8kR1fsnmwsa6-3" value="" style="edgeStyle=orthogonalEdgeStyle;rounded=0;orthogonalLoop=1;jettySize=auto;html=1;" edge="1" parent="1" source="oGM4uTyw8kR1fsnmwsa6-1" target="oGM4uTyw8kR1fsnmwsa6-2">
          <mxGeometry relative="1" as="geometry" />
        </mxCell>
        <mxCell id="oGM4uTyw8kR1fsnmwsa6-1" value="Start" style="rounded=1;whiteSpace=wrap;html=1;fillColor=#006600;" vertex="1" parent="1">
          <mxGeometry x="390" y="20" width="120" height="60" as="geometry" />
        </mxCell>
        <mxCell id="oGM4uTyw8kR1fsnmwsa6-5" value="" style="edgeStyle=orthogonalEdgeStyle;rounded=0;orthogonalLoop=1;jettySize=auto;html=1;" edge="1" parent="1" source="oGM4uTyw8kR1fsnmwsa6-2" target="oGM4uTyw8kR1fsnmwsa6-4">
          <mxGeometry relative="1" as="geometry" />
        </mxCell>
        <mxCell id="oGM4uTyw8kR1fsnmwsa6-7" value="" style="edgeStyle=orthogonalEdgeStyle;rounded=0;orthogonalLoop=1;jettySize=auto;html=1;" edge="1" parent="1" source="oGM4uTyw8kR1fsnmwsa6-2" target="oGM4uTyw8kR1fsnmwsa6-6">
          <mxGeometry relative="1" as="geometry" />
        </mxCell>
        <mxCell id="oGM4uTyw8kR1fsnmwsa6-9" value="" style="edgeStyle=orthogonalEdgeStyle;rounded=0;orthogonalLoop=1;jettySize=auto;html=1;" edge="1" parent="1" source="oGM4uTyw8kR1fsnmwsa6-2" target="oGM4uTyw8kR1fsnmwsa6-8">
          <mxGeometry relative="1" as="geometry" />
        </mxCell>
        <mxCell id="oGM4uTyw8kR1fsnmwsa6-2" value="Pizza size" style="whiteSpace=wrap;html=1;rounded=1;fillColor=#004C99;" vertex="1" parent="1">
          <mxGeometry x="390" y="160" width="120" height="60" as="geometry" />
        </mxCell>
        <mxCell id="oGM4uTyw8kR1fsnmwsa6-12" style="edgeStyle=orthogonalEdgeStyle;rounded=0;orthogonalLoop=1;jettySize=auto;html=1;exitX=0.5;exitY=1;exitDx=0;exitDy=0;entryX=0;entryY=0.5;entryDx=0;entryDy=0;" edge="1" parent="1" source="oGM4uTyw8kR1fsnmwsa6-4" target="oGM4uTyw8kR1fsnmwsa6-10">
          <mxGeometry relative="1" as="geometry" />
        </mxCell>
        <mxCell id="oGM4uTyw8kR1fsnmwsa6-4" value="small pizza&lt;br&gt;15$" style="whiteSpace=wrap;html=1;rounded=1;" vertex="1" parent="1">
          <mxGeometry x="210" y="300" width="120" height="60" as="geometry" />
        </mxCell>
        <mxCell id="oGM4uTyw8kR1fsnmwsa6-13" style="edgeStyle=orthogonalEdgeStyle;rounded=0;orthogonalLoop=1;jettySize=auto;html=1;exitX=0.5;exitY=1;exitDx=0;exitDy=0;entryX=1;entryY=0.5;entryDx=0;entryDy=0;" edge="1" parent="1" source="oGM4uTyw8kR1fsnmwsa6-6" target="oGM4uTyw8kR1fsnmwsa6-10">
          <mxGeometry relative="1" as="geometry" />
        </mxCell>
        <mxCell id="oGM4uTyw8kR1fsnmwsa6-6" value="large pizza&lt;br&gt;25$" style="whiteSpace=wrap;html=1;rounded=1;" vertex="1" parent="1">
          <mxGeometry x="560" y="300" width="120" height="60" as="geometry" />
        </mxCell>
        <mxCell id="oGM4uTyw8kR1fsnmwsa6-11" value="" style="edgeStyle=orthogonalEdgeStyle;rounded=0;orthogonalLoop=1;jettySize=auto;html=1;" edge="1" parent="1" source="oGM4uTyw8kR1fsnmwsa6-8" target="oGM4uTyw8kR1fsnmwsa6-10">
          <mxGeometry relative="1" as="geometry" />
        </mxCell>
        <mxCell id="oGM4uTyw8kR1fsnmwsa6-8" value="medium pizza&lt;br&gt;20$" style="whiteSpace=wrap;html=1;rounded=1;" vertex="1" parent="1">
          <mxGeometry x="390" y="300" width="120" height="60" as="geometry" />
        </mxCell>
        <mxCell id="oGM4uTyw8kR1fsnmwsa6-81" style="edgeStyle=orthogonalEdgeStyle;rounded=0;orthogonalLoop=1;jettySize=auto;html=1;exitX=0.5;exitY=1;exitDx=0;exitDy=0;entryX=0.5;entryY=0;entryDx=0;entryDy=0;" edge="1" parent="1" source="oGM4uTyw8kR1fsnmwsa6-10" target="oGM4uTyw8kR1fsnmwsa6-71">
          <mxGeometry relative="1" as="geometry" />
        </mxCell>
        <mxCell id="oGM4uTyw8kR1fsnmwsa6-10" value="Pizza price" style="whiteSpace=wrap;html=1;rounded=1;fillColor=#006600;" vertex="1" parent="1">
          <mxGeometry x="390" y="440" width="120" height="60" as="geometry" />
        </mxCell>
        <mxCell id="oGM4uTyw8kR1fsnmwsa6-14" value="L" style="text;html=1;align=center;verticalAlign=middle;resizable=0;points=[];autosize=1;strokeColor=none;fillColor=none;" vertex="1" parent="1">
          <mxGeometry x="565" y="158" width="30" height="30" as="geometry" />
        </mxCell>
        <mxCell id="oGM4uTyw8kR1fsnmwsa6-15" value="S" style="text;html=1;align=center;verticalAlign=middle;resizable=0;points=[];autosize=1;strokeColor=none;fillColor=none;" vertex="1" parent="1">
          <mxGeometry x="315" y="158" width="30" height="30" as="geometry" />
        </mxCell>
        <mxCell id="oGM4uTyw8kR1fsnmwsa6-16" value="M" style="text;html=1;align=center;verticalAlign=middle;resizable=0;points=[];autosize=1;strokeColor=none;fillColor=none;" vertex="1" parent="1">
          <mxGeometry x="414" y="240" width="30" height="30" as="geometry" />
        </mxCell>
        <mxCell id="oGM4uTyw8kR1fsnmwsa6-59" value="" style="edgeStyle=orthogonalEdgeStyle;rounded=0;orthogonalLoop=1;jettySize=auto;html=1;" edge="1" parent="1" source="oGM4uTyw8kR1fsnmwsa6-60" target="oGM4uTyw8kR1fsnmwsa6-65">
          <mxGeometry relative="1" as="geometry" />
        </mxCell>
        <mxCell id="oGM4uTyw8kR1fsnmwsa6-60" value="add extra cheese" style="whiteSpace=wrap;html=1;rounded=1;fillColor=#004C99;" vertex="1" parent="1">
          <mxGeometry x="390" y="870" width="120" height="60" as="geometry" />
        </mxCell>
        <mxCell id="oGM4uTyw8kR1fsnmwsa6-61" value="" style="edgeStyle=orthogonalEdgeStyle;rounded=0;orthogonalLoop=1;jettySize=auto;html=1;" edge="1" parent="1" target="oGM4uTyw8kR1fsnmwsa6-63">
          <mxGeometry relative="1" as="geometry">
            <mxPoint x="510" y="902" as="sourcePoint" />
          </mxGeometry>
        </mxCell>
        <mxCell id="oGM4uTyw8kR1fsnmwsa6-62" style="edgeStyle=orthogonalEdgeStyle;rounded=0;orthogonalLoop=1;jettySize=auto;html=1;exitX=0.5;exitY=1;exitDx=0;exitDy=0;entryX=1;entryY=0.5;entryDx=0;entryDy=0;" edge="1" parent="1" source="oGM4uTyw8kR1fsnmwsa6-63" target="oGM4uTyw8kR1fsnmwsa6-65">
          <mxGeometry relative="1" as="geometry" />
        </mxCell>
        <mxCell id="oGM4uTyw8kR1fsnmwsa6-63" value="add&lt;br&gt;extra cheese&lt;br&gt;+1$" style="whiteSpace=wrap;html=1;rounded=1;" vertex="1" parent="1">
          <mxGeometry x="530" y="940" width="120" height="50" as="geometry" />
        </mxCell>
        <mxCell id="oGM4uTyw8kR1fsnmwsa6-64" value="Yes" style="text;html=1;align=center;verticalAlign=middle;resizable=0;points=[];autosize=1;strokeColor=none;fillColor=none;" vertex="1" parent="1">
          <mxGeometry x="530" y="870" width="40" height="30" as="geometry" />
        </mxCell>
        <mxCell id="oGM4uTyw8kR1fsnmwsa6-65" value="Total price&lt;br&gt;(extra cheese)" style="whiteSpace=wrap;html=1;rounded=1;fillColor=#006600;" vertex="1" parent="1">
          <mxGeometry x="390" y="1010" width="120" height="60" as="geometry" />
        </mxCell>
        <mxCell id="oGM4uTyw8kR1fsnmwsa6-68" value="" style="edgeStyle=orthogonalEdgeStyle;rounded=0;orthogonalLoop=1;jettySize=auto;html=1;" edge="1" parent="1" source="oGM4uTyw8kR1fsnmwsa6-71" target="oGM4uTyw8kR1fsnmwsa6-73">
          <mxGeometry relative="1" as="geometry" />
        </mxCell>
        <mxCell id="oGM4uTyw8kR1fsnmwsa6-69" value="" style="edgeStyle=orthogonalEdgeStyle;rounded=0;orthogonalLoop=1;jettySize=auto;html=1;" edge="1" parent="1" source="oGM4uTyw8kR1fsnmwsa6-71" target="oGM4uTyw8kR1fsnmwsa6-75">
          <mxGeometry relative="1" as="geometry" />
        </mxCell>
        <mxCell id="oGM4uTyw8kR1fsnmwsa6-70" style="edgeStyle=orthogonalEdgeStyle;rounded=0;orthogonalLoop=1;jettySize=auto;html=1;exitX=0;exitY=0.5;exitDx=0;exitDy=0;entryX=0.5;entryY=0;entryDx=0;entryDy=0;" edge="1" parent="1" source="oGM4uTyw8kR1fsnmwsa6-71" target="oGM4uTyw8kR1fsnmwsa6-78">
          <mxGeometry relative="1" as="geometry" />
        </mxCell>
        <mxCell id="oGM4uTyw8kR1fsnmwsa6-71" value="add pepperoni" style="whiteSpace=wrap;html=1;rounded=1;fillColor=#004C99;" vertex="1" parent="1">
          <mxGeometry x="390" y="552" width="120" height="60" as="geometry" />
        </mxCell>
        <mxCell id="oGM4uTyw8kR1fsnmwsa6-72" style="edgeStyle=orthogonalEdgeStyle;rounded=0;orthogonalLoop=1;jettySize=auto;html=1;exitX=0.5;exitY=1;exitDx=0;exitDy=0;entryX=1;entryY=0.5;entryDx=0;entryDy=0;" edge="1" parent="1" source="oGM4uTyw8kR1fsnmwsa6-73" target="oGM4uTyw8kR1fsnmwsa6-75">
          <mxGeometry relative="1" as="geometry" />
        </mxCell>
        <mxCell id="oGM4uTyw8kR1fsnmwsa6-73" value="Size: M and L&lt;br&gt;add pepperoni&lt;br&gt;+3$" style="whiteSpace=wrap;html=1;rounded=1;" vertex="1" parent="1">
          <mxGeometry x="530" y="650" width="120" height="50" as="geometry" />
        </mxCell>
        <mxCell id="oGM4uTyw8kR1fsnmwsa6-74" value="Yes" style="text;html=1;align=center;verticalAlign=middle;resizable=0;points=[];autosize=1;strokeColor=none;fillColor=none;" vertex="1" parent="1">
          <mxGeometry x="530" y="550" width="40" height="30" as="geometry" />
        </mxCell>
        <mxCell id="oGM4uTyw8kR1fsnmwsa6-80" style="edgeStyle=orthogonalEdgeStyle;rounded=0;orthogonalLoop=1;jettySize=auto;html=1;exitX=0.5;exitY=1;exitDx=0;exitDy=0;entryX=0.5;entryY=0;entryDx=0;entryDy=0;" edge="1" parent="1" source="oGM4uTyw8kR1fsnmwsa6-75" target="oGM4uTyw8kR1fsnmwsa6-60">
          <mxGeometry relative="1" as="geometry" />
        </mxCell>
        <mxCell id="oGM4uTyw8kR1fsnmwsa6-75" value="Total price &lt;br&gt;(pepperoni)" style="whiteSpace=wrap;html=1;rounded=1;fillColor=#006600;" vertex="1" parent="1">
          <mxGeometry x="390" y="752" width="120" height="60" as="geometry" />
        </mxCell>
        <mxCell id="oGM4uTyw8kR1fsnmwsa6-76" value="No" style="text;html=1;align=center;verticalAlign=middle;resizable=0;points=[];autosize=1;strokeColor=none;fillColor=none;" vertex="1" parent="1">
          <mxGeometry x="410" y="660" width="40" height="30" as="geometry" />
        </mxCell>
        <mxCell id="oGM4uTyw8kR1fsnmwsa6-77" style="edgeStyle=orthogonalEdgeStyle;rounded=0;orthogonalLoop=1;jettySize=auto;html=1;exitX=0.5;exitY=1;exitDx=0;exitDy=0;entryX=0;entryY=0.5;entryDx=0;entryDy=0;" edge="1" parent="1" source="oGM4uTyw8kR1fsnmwsa6-78" target="oGM4uTyw8kR1fsnmwsa6-75">
          <mxGeometry relative="1" as="geometry" />
        </mxCell>
        <mxCell id="oGM4uTyw8kR1fsnmwsa6-78" value="Size: S&lt;br&gt;add pepperoni&lt;br&gt;+2$" style="whiteSpace=wrap;html=1;rounded=1;" vertex="1" parent="1">
          <mxGeometry x="240" y="650" width="120" height="50" as="geometry" />
        </mxCell>
        <mxCell id="oGM4uTyw8kR1fsnmwsa6-79" value="Yes" style="text;html=1;align=center;verticalAlign=middle;resizable=0;points=[];autosize=1;strokeColor=none;fillColor=none;" vertex="1" parent="1">
          <mxGeometry x="320" y="550" width="40" height="30" as="geometry" />
        </mxCell>
      </root>
    </mxGraphModel>
  </diagram>
</mxfile>
